<mxfile host="app.diagrams.net" modified="2022-06-29T20:01:24.832Z" agent="5.0 (Windows NT 10.0; Win64; x64) AppleWebKit/537.36 (KHTML, like Gecko) Chrome/102.0.0.0 Safari/537.36" etag="iKekTIUQQq7Y7Yp-dtFq" version="20.0.4" type="github">
  <diagram name="Page-1" id="9f46799a-70d6-7492-0946-bef42562c5a5">
    <mxGraphModel dx="2062" dy="832" grid="1" gridSize="10" guides="1" tooltips="1" connect="1" arrows="1" fold="1" page="1" pageScale="1" pageWidth="1100" pageHeight="850" background="none" math="0" shadow="0">
      <root>
        <mxCell id="0" />
        <mxCell id="1" parent="0" />
        <mxCell id="6ua6EZ7eQQbF8Mh1pxGT-7" value="cliente" style="shape=table;startSize=30;container=1;collapsible=0;childLayout=tableLayout;fixedRows=1;rowLines=0;fontStyle=1;" vertex="1" parent="1">
          <mxGeometry x="50" y="90" width="190" height="220" as="geometry" />
        </mxCell>
        <mxCell id="6ua6EZ7eQQbF8Mh1pxGT-8" value="" style="shape=tableRow;horizontal=0;startSize=0;swimlaneHead=0;swimlaneBody=0;top=0;left=0;bottom=0;right=0;collapsible=0;dropTarget=0;fillColor=none;points=[[0,0.5],[1,0.5]];portConstraint=eastwest;strokeWidth=5;perimeterSpacing=9;rounded=1;sketch=1;shadow=1;" vertex="1" parent="6ua6EZ7eQQbF8Mh1pxGT-7">
          <mxGeometry y="30" width="190" height="30" as="geometry" />
        </mxCell>
        <mxCell id="6ua6EZ7eQQbF8Mh1pxGT-9" value="pk" style="shape=partialRectangle;html=1;whiteSpace=wrap;connectable=0;fillColor=none;top=0;left=0;bottom=0;right=0;overflow=hidden;pointerEvents=1;" vertex="1" parent="6ua6EZ7eQQbF8Mh1pxGT-8">
          <mxGeometry width="95" height="30" as="geometry">
            <mxRectangle width="95" height="30" as="alternateBounds" />
          </mxGeometry>
        </mxCell>
        <mxCell id="6ua6EZ7eQQbF8Mh1pxGT-17" value="id" style="shape=partialRectangle;html=1;whiteSpace=wrap;connectable=0;fillColor=none;top=0;left=0;bottom=0;right=0;overflow=hidden;pointerEvents=1;" vertex="1" parent="6ua6EZ7eQQbF8Mh1pxGT-8">
          <mxGeometry x="95" width="95" height="30" as="geometry">
            <mxRectangle width="95" height="30" as="alternateBounds" />
          </mxGeometry>
        </mxCell>
        <mxCell id="6ua6EZ7eQQbF8Mh1pxGT-11" value="" style="shape=tableRow;horizontal=0;startSize=0;swimlaneHead=0;swimlaneBody=0;top=0;left=0;bottom=0;right=0;collapsible=0;dropTarget=0;fillColor=none;points=[[0,0.5],[1,0.5]];portConstraint=eastwest;" vertex="1" parent="6ua6EZ7eQQbF8Mh1pxGT-7">
          <mxGeometry y="60" width="190" height="30" as="geometry" />
        </mxCell>
        <mxCell id="6ua6EZ7eQQbF8Mh1pxGT-12" value="" style="shape=partialRectangle;html=1;whiteSpace=wrap;connectable=0;fillColor=none;top=0;left=0;bottom=0;right=0;overflow=hidden;" vertex="1" parent="6ua6EZ7eQQbF8Mh1pxGT-11">
          <mxGeometry width="95" height="30" as="geometry">
            <mxRectangle width="95" height="30" as="alternateBounds" />
          </mxGeometry>
        </mxCell>
        <mxCell id="6ua6EZ7eQQbF8Mh1pxGT-18" value="nome" style="shape=partialRectangle;html=1;whiteSpace=wrap;connectable=0;fillColor=none;top=0;left=0;bottom=0;right=0;overflow=hidden;" vertex="1" parent="6ua6EZ7eQQbF8Mh1pxGT-11">
          <mxGeometry x="95" width="95" height="30" as="geometry">
            <mxRectangle width="95" height="30" as="alternateBounds" />
          </mxGeometry>
        </mxCell>
        <mxCell id="6ua6EZ7eQQbF8Mh1pxGT-14" value="" style="shape=tableRow;horizontal=0;startSize=0;swimlaneHead=0;swimlaneBody=0;top=0;left=0;bottom=0;right=0;collapsible=0;dropTarget=0;fillColor=none;points=[[0,0.5],[1,0.5]];portConstraint=eastwest;" vertex="1" parent="6ua6EZ7eQQbF8Mh1pxGT-7">
          <mxGeometry y="90" width="190" height="30" as="geometry" />
        </mxCell>
        <mxCell id="6ua6EZ7eQQbF8Mh1pxGT-15" value="" style="shape=partialRectangle;html=1;whiteSpace=wrap;connectable=0;fillColor=none;top=0;left=0;bottom=0;right=0;overflow=hidden;" vertex="1" parent="6ua6EZ7eQQbF8Mh1pxGT-14">
          <mxGeometry width="95" height="30" as="geometry">
            <mxRectangle width="95" height="30" as="alternateBounds" />
          </mxGeometry>
        </mxCell>
        <mxCell id="6ua6EZ7eQQbF8Mh1pxGT-19" value="idade" style="shape=partialRectangle;html=1;whiteSpace=wrap;connectable=0;fillColor=none;top=0;left=0;bottom=0;right=0;overflow=hidden;" vertex="1" parent="6ua6EZ7eQQbF8Mh1pxGT-14">
          <mxGeometry x="95" width="95" height="30" as="geometry">
            <mxRectangle width="95" height="30" as="alternateBounds" />
          </mxGeometry>
        </mxCell>
        <mxCell id="6ua6EZ7eQQbF8Mh1pxGT-61" style="shape=tableRow;horizontal=0;startSize=0;swimlaneHead=0;swimlaneBody=0;top=0;left=0;bottom=0;right=0;collapsible=0;dropTarget=0;fillColor=none;points=[[0,0.5],[1,0.5]];portConstraint=eastwest;" vertex="1" parent="6ua6EZ7eQQbF8Mh1pxGT-7">
          <mxGeometry y="120" width="190" height="30" as="geometry" />
        </mxCell>
        <mxCell id="6ua6EZ7eQQbF8Mh1pxGT-62" style="shape=partialRectangle;html=1;whiteSpace=wrap;connectable=0;fillColor=none;top=0;left=0;bottom=0;right=0;overflow=hidden;" vertex="1" parent="6ua6EZ7eQQbF8Mh1pxGT-61">
          <mxGeometry width="95" height="30" as="geometry">
            <mxRectangle width="95" height="30" as="alternateBounds" />
          </mxGeometry>
        </mxCell>
        <mxCell id="6ua6EZ7eQQbF8Mh1pxGT-63" value="cpf" style="shape=partialRectangle;html=1;whiteSpace=wrap;connectable=0;fillColor=none;top=0;left=0;bottom=0;right=0;overflow=hidden;" vertex="1" parent="6ua6EZ7eQQbF8Mh1pxGT-61">
          <mxGeometry x="95" width="95" height="30" as="geometry">
            <mxRectangle width="95" height="30" as="alternateBounds" />
          </mxGeometry>
        </mxCell>
        <mxCell id="6ua6EZ7eQQbF8Mh1pxGT-64" style="shape=tableRow;horizontal=0;startSize=0;swimlaneHead=0;swimlaneBody=0;top=0;left=0;bottom=0;right=0;collapsible=0;dropTarget=0;fillColor=none;points=[[0,0.5],[1,0.5]];portConstraint=eastwest;" vertex="1" parent="6ua6EZ7eQQbF8Mh1pxGT-7">
          <mxGeometry y="150" width="190" height="30" as="geometry" />
        </mxCell>
        <mxCell id="6ua6EZ7eQQbF8Mh1pxGT-65" value="FK" style="shape=partialRectangle;html=1;whiteSpace=wrap;connectable=0;fillColor=none;top=0;left=0;bottom=0;right=0;overflow=hidden;" vertex="1" parent="6ua6EZ7eQQbF8Mh1pxGT-64">
          <mxGeometry width="95" height="30" as="geometry">
            <mxRectangle width="95" height="30" as="alternateBounds" />
          </mxGeometry>
        </mxCell>
        <mxCell id="6ua6EZ7eQQbF8Mh1pxGT-66" value="mercados" style="shape=partialRectangle;html=1;whiteSpace=wrap;connectable=0;fillColor=none;top=0;left=0;bottom=0;right=0;overflow=hidden;" vertex="1" parent="6ua6EZ7eQQbF8Mh1pxGT-64">
          <mxGeometry x="95" width="95" height="30" as="geometry">
            <mxRectangle width="95" height="30" as="alternateBounds" />
          </mxGeometry>
        </mxCell>
        <mxCell id="6ua6EZ7eQQbF8Mh1pxGT-67" style="shape=tableRow;horizontal=0;startSize=0;swimlaneHead=0;swimlaneBody=0;top=0;left=0;bottom=0;right=0;collapsible=0;dropTarget=0;fillColor=none;points=[[0,0.5],[1,0.5]];portConstraint=eastwest;" vertex="1" parent="6ua6EZ7eQQbF8Mh1pxGT-7">
          <mxGeometry y="180" width="190" height="30" as="geometry" />
        </mxCell>
        <mxCell id="6ua6EZ7eQQbF8Mh1pxGT-68" style="shape=partialRectangle;html=1;whiteSpace=wrap;connectable=0;fillColor=none;top=0;left=0;bottom=0;right=0;overflow=hidden;" vertex="1" parent="6ua6EZ7eQQbF8Mh1pxGT-67">
          <mxGeometry width="95" height="30" as="geometry">
            <mxRectangle width="95" height="30" as="alternateBounds" />
          </mxGeometry>
        </mxCell>
        <mxCell id="6ua6EZ7eQQbF8Mh1pxGT-69" value="genero" style="shape=partialRectangle;html=1;whiteSpace=wrap;connectable=0;fillColor=none;top=0;left=0;bottom=0;right=0;overflow=hidden;" vertex="1" parent="6ua6EZ7eQQbF8Mh1pxGT-67">
          <mxGeometry x="95" width="95" height="30" as="geometry">
            <mxRectangle width="95" height="30" as="alternateBounds" />
          </mxGeometry>
        </mxCell>
        <mxCell id="6ua6EZ7eQQbF8Mh1pxGT-59" value="" style="endArrow=none;html=1;rounded=0;entryX=1.006;entryY=-0.033;entryDx=0;entryDy=0;entryPerimeter=0;exitX=0.062;exitY=0.813;exitDx=0;exitDy=0;exitPerimeter=0;" edge="1" parent="6ua6EZ7eQQbF8Mh1pxGT-7" source="6ua6EZ7eQQbF8Mh1pxGT-8" target="6ua6EZ7eQQbF8Mh1pxGT-11">
          <mxGeometry width="50" height="50" relative="1" as="geometry">
            <mxPoint x="30" y="60" as="sourcePoint" />
            <mxPoint x="120" y="60" as="targetPoint" />
            <Array as="points">
              <mxPoint x="70" y="60" />
            </Array>
          </mxGeometry>
        </mxCell>
        <mxCell id="6ua6EZ7eQQbF8Mh1pxGT-77" value="entrega" style="shape=table;startSize=30;container=1;collapsible=0;childLayout=tableLayout;fixedRows=1;rowLines=0;fontStyle=1;" vertex="1" parent="1">
          <mxGeometry x="480" y="90" width="190" height="250" as="geometry" />
        </mxCell>
        <mxCell id="6ua6EZ7eQQbF8Mh1pxGT-78" value="" style="shape=tableRow;horizontal=0;startSize=0;swimlaneHead=0;swimlaneBody=0;top=0;left=0;bottom=0;right=0;collapsible=0;dropTarget=0;fillColor=none;points=[[0,0.5],[1,0.5]];portConstraint=eastwest;strokeWidth=5;perimeterSpacing=9;rounded=1;sketch=1;shadow=1;" vertex="1" parent="6ua6EZ7eQQbF8Mh1pxGT-77">
          <mxGeometry y="30" width="190" height="30" as="geometry" />
        </mxCell>
        <mxCell id="6ua6EZ7eQQbF8Mh1pxGT-79" value="pk" style="shape=partialRectangle;html=1;whiteSpace=wrap;connectable=0;fillColor=none;top=0;left=0;bottom=0;right=0;overflow=hidden;pointerEvents=1;" vertex="1" parent="6ua6EZ7eQQbF8Mh1pxGT-78">
          <mxGeometry width="58" height="30" as="geometry">
            <mxRectangle width="58" height="30" as="alternateBounds" />
          </mxGeometry>
        </mxCell>
        <mxCell id="6ua6EZ7eQQbF8Mh1pxGT-80" value="id" style="shape=partialRectangle;html=1;whiteSpace=wrap;connectable=0;fillColor=none;top=0;left=0;bottom=0;right=0;overflow=hidden;pointerEvents=1;" vertex="1" parent="6ua6EZ7eQQbF8Mh1pxGT-78">
          <mxGeometry x="58" width="132" height="30" as="geometry">
            <mxRectangle width="132" height="30" as="alternateBounds" />
          </mxGeometry>
        </mxCell>
        <mxCell id="6ua6EZ7eQQbF8Mh1pxGT-81" value="" style="shape=tableRow;horizontal=0;startSize=0;swimlaneHead=0;swimlaneBody=0;top=0;left=0;bottom=0;right=0;collapsible=0;dropTarget=0;fillColor=none;points=[[0,0.5],[1,0.5]];portConstraint=eastwest;" vertex="1" parent="6ua6EZ7eQQbF8Mh1pxGT-77">
          <mxGeometry y="60" width="190" height="30" as="geometry" />
        </mxCell>
        <mxCell id="6ua6EZ7eQQbF8Mh1pxGT-82" value="" style="shape=partialRectangle;html=1;whiteSpace=wrap;connectable=0;fillColor=none;top=0;left=0;bottom=0;right=0;overflow=hidden;" vertex="1" parent="6ua6EZ7eQQbF8Mh1pxGT-81">
          <mxGeometry width="58" height="30" as="geometry">
            <mxRectangle width="58" height="30" as="alternateBounds" />
          </mxGeometry>
        </mxCell>
        <mxCell id="6ua6EZ7eQQbF8Mh1pxGT-83" value="valor" style="shape=partialRectangle;html=1;whiteSpace=wrap;connectable=0;fillColor=none;top=0;left=0;bottom=0;right=0;overflow=hidden;" vertex="1" parent="6ua6EZ7eQQbF8Mh1pxGT-81">
          <mxGeometry x="58" width="132" height="30" as="geometry">
            <mxRectangle width="132" height="30" as="alternateBounds" />
          </mxGeometry>
        </mxCell>
        <mxCell id="6ua6EZ7eQQbF8Mh1pxGT-84" value="" style="shape=tableRow;horizontal=0;startSize=0;swimlaneHead=0;swimlaneBody=0;top=0;left=0;bottom=0;right=0;collapsible=0;dropTarget=0;fillColor=none;points=[[0,0.5],[1,0.5]];portConstraint=eastwest;" vertex="1" parent="6ua6EZ7eQQbF8Mh1pxGT-77">
          <mxGeometry y="90" width="190" height="30" as="geometry" />
        </mxCell>
        <mxCell id="6ua6EZ7eQQbF8Mh1pxGT-85" value="" style="shape=partialRectangle;html=1;whiteSpace=wrap;connectable=0;fillColor=none;top=0;left=0;bottom=0;right=0;overflow=hidden;" vertex="1" parent="6ua6EZ7eQQbF8Mh1pxGT-84">
          <mxGeometry width="58" height="30" as="geometry">
            <mxRectangle width="58" height="30" as="alternateBounds" />
          </mxGeometry>
        </mxCell>
        <mxCell id="6ua6EZ7eQQbF8Mh1pxGT-86" value="data" style="shape=partialRectangle;html=1;whiteSpace=wrap;connectable=0;fillColor=none;top=0;left=0;bottom=0;right=0;overflow=hidden;" vertex="1" parent="6ua6EZ7eQQbF8Mh1pxGT-84">
          <mxGeometry x="58" width="132" height="30" as="geometry">
            <mxRectangle width="132" height="30" as="alternateBounds" />
          </mxGeometry>
        </mxCell>
        <mxCell id="6ua6EZ7eQQbF8Mh1pxGT-87" style="shape=tableRow;horizontal=0;startSize=0;swimlaneHead=0;swimlaneBody=0;top=0;left=0;bottom=0;right=0;collapsible=0;dropTarget=0;fillColor=none;points=[[0,0.5],[1,0.5]];portConstraint=eastwest;" vertex="1" parent="6ua6EZ7eQQbF8Mh1pxGT-77">
          <mxGeometry y="120" width="190" height="30" as="geometry" />
        </mxCell>
        <mxCell id="6ua6EZ7eQQbF8Mh1pxGT-88" value="FK" style="shape=partialRectangle;html=1;whiteSpace=wrap;connectable=0;fillColor=none;top=0;left=0;bottom=0;right=0;overflow=hidden;" vertex="1" parent="6ua6EZ7eQQbF8Mh1pxGT-87">
          <mxGeometry width="58" height="30" as="geometry">
            <mxRectangle width="58" height="30" as="alternateBounds" />
          </mxGeometry>
        </mxCell>
        <mxCell id="6ua6EZ7eQQbF8Mh1pxGT-89" value="produtos" style="shape=partialRectangle;html=1;whiteSpace=wrap;connectable=0;fillColor=none;top=0;left=0;bottom=0;right=0;overflow=hidden;" vertex="1" parent="6ua6EZ7eQQbF8Mh1pxGT-87">
          <mxGeometry x="58" width="132" height="30" as="geometry">
            <mxRectangle width="132" height="30" as="alternateBounds" />
          </mxGeometry>
        </mxCell>
        <mxCell id="6ua6EZ7eQQbF8Mh1pxGT-90" style="shape=tableRow;horizontal=0;startSize=0;swimlaneHead=0;swimlaneBody=0;top=0;left=0;bottom=0;right=0;collapsible=0;dropTarget=0;fillColor=none;points=[[0,0.5],[1,0.5]];portConstraint=eastwest;" vertex="1" parent="6ua6EZ7eQQbF8Mh1pxGT-77">
          <mxGeometry y="150" width="190" height="30" as="geometry" />
        </mxCell>
        <mxCell id="6ua6EZ7eQQbF8Mh1pxGT-91" value="FK" style="shape=partialRectangle;html=1;whiteSpace=wrap;connectable=0;fillColor=none;top=0;left=0;bottom=0;right=0;overflow=hidden;" vertex="1" parent="6ua6EZ7eQQbF8Mh1pxGT-90">
          <mxGeometry width="58" height="30" as="geometry">
            <mxRectangle width="58" height="30" as="alternateBounds" />
          </mxGeometry>
        </mxCell>
        <mxCell id="6ua6EZ7eQQbF8Mh1pxGT-92" value="entregador" style="shape=partialRectangle;html=1;whiteSpace=wrap;connectable=0;fillColor=none;top=0;left=0;bottom=0;right=0;overflow=hidden;" vertex="1" parent="6ua6EZ7eQQbF8Mh1pxGT-90">
          <mxGeometry x="58" width="132" height="30" as="geometry">
            <mxRectangle width="132" height="30" as="alternateBounds" />
          </mxGeometry>
        </mxCell>
        <mxCell id="6ua6EZ7eQQbF8Mh1pxGT-93" style="shape=tableRow;horizontal=0;startSize=0;swimlaneHead=0;swimlaneBody=0;top=0;left=0;bottom=0;right=0;collapsible=0;dropTarget=0;fillColor=none;points=[[0,0.5],[1,0.5]];portConstraint=eastwest;" vertex="1" parent="6ua6EZ7eQQbF8Mh1pxGT-77">
          <mxGeometry y="180" width="190" height="30" as="geometry" />
        </mxCell>
        <mxCell id="6ua6EZ7eQQbF8Mh1pxGT-94" style="shape=partialRectangle;html=1;whiteSpace=wrap;connectable=0;fillColor=none;top=0;left=0;bottom=0;right=0;overflow=hidden;" vertex="1" parent="6ua6EZ7eQQbF8Mh1pxGT-93">
          <mxGeometry width="58" height="30" as="geometry">
            <mxRectangle width="58" height="30" as="alternateBounds" />
          </mxGeometry>
        </mxCell>
        <mxCell id="6ua6EZ7eQQbF8Mh1pxGT-95" value="endereçõ" style="shape=partialRectangle;html=1;whiteSpace=wrap;connectable=0;fillColor=none;top=0;left=0;bottom=0;right=0;overflow=hidden;" vertex="1" parent="6ua6EZ7eQQbF8Mh1pxGT-93">
          <mxGeometry x="58" width="132" height="30" as="geometry">
            <mxRectangle width="132" height="30" as="alternateBounds" />
          </mxGeometry>
        </mxCell>
        <mxCell id="6ua6EZ7eQQbF8Mh1pxGT-96" style="shape=tableRow;horizontal=0;startSize=0;swimlaneHead=0;swimlaneBody=0;top=0;left=0;bottom=0;right=0;collapsible=0;dropTarget=0;fillColor=none;points=[[0,0.5],[1,0.5]];portConstraint=eastwest;" vertex="1" parent="6ua6EZ7eQQbF8Mh1pxGT-77">
          <mxGeometry y="210" width="190" height="30" as="geometry" />
        </mxCell>
        <mxCell id="6ua6EZ7eQQbF8Mh1pxGT-97" value="FK" style="shape=partialRectangle;html=1;whiteSpace=wrap;connectable=0;fillColor=none;top=0;left=0;bottom=0;right=0;overflow=hidden;" vertex="1" parent="6ua6EZ7eQQbF8Mh1pxGT-96">
          <mxGeometry width="58" height="30" as="geometry">
            <mxRectangle width="58" height="30" as="alternateBounds" />
          </mxGeometry>
        </mxCell>
        <mxCell id="6ua6EZ7eQQbF8Mh1pxGT-98" value="cliente" style="shape=partialRectangle;html=1;whiteSpace=wrap;connectable=0;fillColor=none;top=0;left=0;bottom=0;right=0;overflow=hidden;" vertex="1" parent="6ua6EZ7eQQbF8Mh1pxGT-96">
          <mxGeometry x="58" width="132" height="30" as="geometry">
            <mxRectangle width="132" height="30" as="alternateBounds" />
          </mxGeometry>
        </mxCell>
        <mxCell id="6ua6EZ7eQQbF8Mh1pxGT-99" value="" style="endArrow=none;html=1;rounded=0;entryX=1.006;entryY=-0.033;entryDx=0;entryDy=0;entryPerimeter=0;exitX=0.062;exitY=0.813;exitDx=0;exitDy=0;exitPerimeter=0;" edge="1" parent="6ua6EZ7eQQbF8Mh1pxGT-77" source="6ua6EZ7eQQbF8Mh1pxGT-78" target="6ua6EZ7eQQbF8Mh1pxGT-81">
          <mxGeometry width="50" height="50" relative="1" as="geometry">
            <mxPoint x="30" y="60" as="sourcePoint" />
            <mxPoint x="120" y="60" as="targetPoint" />
            <Array as="points">
              <mxPoint x="70" y="60" />
            </Array>
          </mxGeometry>
        </mxCell>
        <mxCell id="6ua6EZ7eQQbF8Mh1pxGT-101" value="entregador" style="shape=table;startSize=30;container=1;collapsible=0;childLayout=tableLayout;fixedRows=1;rowLines=0;fontStyle=1;" vertex="1" parent="1">
          <mxGeometry x="830" y="90" width="190" height="210" as="geometry" />
        </mxCell>
        <mxCell id="6ua6EZ7eQQbF8Mh1pxGT-102" value="" style="shape=tableRow;horizontal=0;startSize=0;swimlaneHead=0;swimlaneBody=0;top=0;left=0;bottom=0;right=0;collapsible=0;dropTarget=0;fillColor=none;points=[[0,0.5],[1,0.5]];portConstraint=eastwest;strokeWidth=5;perimeterSpacing=9;rounded=1;sketch=1;shadow=1;" vertex="1" parent="6ua6EZ7eQQbF8Mh1pxGT-101">
          <mxGeometry y="30" width="190" height="30" as="geometry" />
        </mxCell>
        <mxCell id="6ua6EZ7eQQbF8Mh1pxGT-103" value="pk" style="shape=partialRectangle;html=1;whiteSpace=wrap;connectable=0;fillColor=none;top=0;left=0;bottom=0;right=0;overflow=hidden;pointerEvents=1;" vertex="1" parent="6ua6EZ7eQQbF8Mh1pxGT-102">
          <mxGeometry width="60" height="30" as="geometry">
            <mxRectangle width="60" height="30" as="alternateBounds" />
          </mxGeometry>
        </mxCell>
        <mxCell id="6ua6EZ7eQQbF8Mh1pxGT-104" value="id" style="shape=partialRectangle;html=1;whiteSpace=wrap;connectable=0;fillColor=none;top=0;left=0;bottom=0;right=0;overflow=hidden;pointerEvents=1;" vertex="1" parent="6ua6EZ7eQQbF8Mh1pxGT-102">
          <mxGeometry x="60" width="130" height="30" as="geometry">
            <mxRectangle width="130" height="30" as="alternateBounds" />
          </mxGeometry>
        </mxCell>
        <mxCell id="6ua6EZ7eQQbF8Mh1pxGT-105" value="" style="shape=tableRow;horizontal=0;startSize=0;swimlaneHead=0;swimlaneBody=0;top=0;left=0;bottom=0;right=0;collapsible=0;dropTarget=0;fillColor=none;points=[[0,0.5],[1,0.5]];portConstraint=eastwest;" vertex="1" parent="6ua6EZ7eQQbF8Mh1pxGT-101">
          <mxGeometry y="60" width="190" height="30" as="geometry" />
        </mxCell>
        <mxCell id="6ua6EZ7eQQbF8Mh1pxGT-106" value="" style="shape=partialRectangle;html=1;whiteSpace=wrap;connectable=0;fillColor=none;top=0;left=0;bottom=0;right=0;overflow=hidden;" vertex="1" parent="6ua6EZ7eQQbF8Mh1pxGT-105">
          <mxGeometry width="60" height="30" as="geometry">
            <mxRectangle width="60" height="30" as="alternateBounds" />
          </mxGeometry>
        </mxCell>
        <mxCell id="6ua6EZ7eQQbF8Mh1pxGT-107" value="nome" style="shape=partialRectangle;html=1;whiteSpace=wrap;connectable=0;fillColor=none;top=0;left=0;bottom=0;right=0;overflow=hidden;" vertex="1" parent="6ua6EZ7eQQbF8Mh1pxGT-105">
          <mxGeometry x="60" width="130" height="30" as="geometry">
            <mxRectangle width="130" height="30" as="alternateBounds" />
          </mxGeometry>
        </mxCell>
        <mxCell id="6ua6EZ7eQQbF8Mh1pxGT-108" value="" style="shape=tableRow;horizontal=0;startSize=0;swimlaneHead=0;swimlaneBody=0;top=0;left=0;bottom=0;right=0;collapsible=0;dropTarget=0;fillColor=none;points=[[0,0.5],[1,0.5]];portConstraint=eastwest;" vertex="1" parent="6ua6EZ7eQQbF8Mh1pxGT-101">
          <mxGeometry y="90" width="190" height="30" as="geometry" />
        </mxCell>
        <mxCell id="6ua6EZ7eQQbF8Mh1pxGT-109" value="" style="shape=partialRectangle;html=1;whiteSpace=wrap;connectable=0;fillColor=none;top=0;left=0;bottom=0;right=0;overflow=hidden;" vertex="1" parent="6ua6EZ7eQQbF8Mh1pxGT-108">
          <mxGeometry width="60" height="30" as="geometry">
            <mxRectangle width="60" height="30" as="alternateBounds" />
          </mxGeometry>
        </mxCell>
        <mxCell id="6ua6EZ7eQQbF8Mh1pxGT-110" value="idade" style="shape=partialRectangle;html=1;whiteSpace=wrap;connectable=0;fillColor=none;top=0;left=0;bottom=0;right=0;overflow=hidden;" vertex="1" parent="6ua6EZ7eQQbF8Mh1pxGT-108">
          <mxGeometry x="60" width="130" height="30" as="geometry">
            <mxRectangle width="130" height="30" as="alternateBounds" />
          </mxGeometry>
        </mxCell>
        <mxCell id="6ua6EZ7eQQbF8Mh1pxGT-111" style="shape=tableRow;horizontal=0;startSize=0;swimlaneHead=0;swimlaneBody=0;top=0;left=0;bottom=0;right=0;collapsible=0;dropTarget=0;fillColor=none;points=[[0,0.5],[1,0.5]];portConstraint=eastwest;" vertex="1" parent="6ua6EZ7eQQbF8Mh1pxGT-101">
          <mxGeometry y="120" width="190" height="30" as="geometry" />
        </mxCell>
        <mxCell id="6ua6EZ7eQQbF8Mh1pxGT-112" style="shape=partialRectangle;html=1;whiteSpace=wrap;connectable=0;fillColor=none;top=0;left=0;bottom=0;right=0;overflow=hidden;" vertex="1" parent="6ua6EZ7eQQbF8Mh1pxGT-111">
          <mxGeometry width="60" height="30" as="geometry">
            <mxRectangle width="60" height="30" as="alternateBounds" />
          </mxGeometry>
        </mxCell>
        <mxCell id="6ua6EZ7eQQbF8Mh1pxGT-113" value="cpf" style="shape=partialRectangle;html=1;whiteSpace=wrap;connectable=0;fillColor=none;top=0;left=0;bottom=0;right=0;overflow=hidden;" vertex="1" parent="6ua6EZ7eQQbF8Mh1pxGT-111">
          <mxGeometry x="60" width="130" height="30" as="geometry">
            <mxRectangle width="130" height="30" as="alternateBounds" />
          </mxGeometry>
        </mxCell>
        <mxCell id="6ua6EZ7eQQbF8Mh1pxGT-114" style="shape=tableRow;horizontal=0;startSize=0;swimlaneHead=0;swimlaneBody=0;top=0;left=0;bottom=0;right=0;collapsible=0;dropTarget=0;fillColor=none;points=[[0,0.5],[1,0.5]];portConstraint=eastwest;" vertex="1" parent="6ua6EZ7eQQbF8Mh1pxGT-101">
          <mxGeometry y="150" width="190" height="30" as="geometry" />
        </mxCell>
        <mxCell id="6ua6EZ7eQQbF8Mh1pxGT-115" value="FK" style="shape=partialRectangle;html=1;whiteSpace=wrap;connectable=0;fillColor=none;top=0;left=0;bottom=0;right=0;overflow=hidden;" vertex="1" parent="6ua6EZ7eQQbF8Mh1pxGT-114">
          <mxGeometry width="60" height="30" as="geometry">
            <mxRectangle width="60" height="30" as="alternateBounds" />
          </mxGeometry>
        </mxCell>
        <mxCell id="6ua6EZ7eQQbF8Mh1pxGT-116" value="" style="shape=partialRectangle;html=1;whiteSpace=wrap;connectable=0;fillColor=none;top=0;left=0;bottom=0;right=0;overflow=hidden;" vertex="1" parent="6ua6EZ7eQQbF8Mh1pxGT-114">
          <mxGeometry x="60" width="130" height="30" as="geometry">
            <mxRectangle width="130" height="30" as="alternateBounds" />
          </mxGeometry>
        </mxCell>
        <mxCell id="6ua6EZ7eQQbF8Mh1pxGT-188" style="shape=tableRow;horizontal=0;startSize=0;swimlaneHead=0;swimlaneBody=0;top=0;left=0;bottom=0;right=0;collapsible=0;dropTarget=0;fillColor=none;points=[[0,0.5],[1,0.5]];portConstraint=eastwest;" vertex="1" parent="6ua6EZ7eQQbF8Mh1pxGT-101">
          <mxGeometry y="180" width="190" height="30" as="geometry" />
        </mxCell>
        <mxCell id="6ua6EZ7eQQbF8Mh1pxGT-189" style="shape=partialRectangle;html=1;whiteSpace=wrap;connectable=0;fillColor=none;top=0;left=0;bottom=0;right=0;overflow=hidden;" vertex="1" parent="6ua6EZ7eQQbF8Mh1pxGT-188">
          <mxGeometry width="60" height="30" as="geometry">
            <mxRectangle width="60" height="30" as="alternateBounds" />
          </mxGeometry>
        </mxCell>
        <mxCell id="6ua6EZ7eQQbF8Mh1pxGT-190" value="genero" style="shape=partialRectangle;html=1;whiteSpace=wrap;connectable=0;fillColor=none;top=0;left=0;bottom=0;right=0;overflow=hidden;" vertex="1" parent="6ua6EZ7eQQbF8Mh1pxGT-188">
          <mxGeometry x="60" width="130" height="30" as="geometry">
            <mxRectangle width="130" height="30" as="alternateBounds" />
          </mxGeometry>
        </mxCell>
        <mxCell id="6ua6EZ7eQQbF8Mh1pxGT-123" value="" style="endArrow=none;html=1;rounded=0;entryX=1.006;entryY=-0.033;entryDx=0;entryDy=0;entryPerimeter=0;exitX=0.062;exitY=0.813;exitDx=0;exitDy=0;exitPerimeter=0;" edge="1" parent="6ua6EZ7eQQbF8Mh1pxGT-101" source="6ua6EZ7eQQbF8Mh1pxGT-102" target="6ua6EZ7eQQbF8Mh1pxGT-105">
          <mxGeometry width="50" height="50" relative="1" as="geometry">
            <mxPoint x="30" y="60" as="sourcePoint" />
            <mxPoint x="120" y="60" as="targetPoint" />
            <Array as="points">
              <mxPoint x="70" y="60" />
            </Array>
          </mxGeometry>
        </mxCell>
        <mxCell id="6ua6EZ7eQQbF8Mh1pxGT-124" value="produto" style="shape=table;startSize=30;container=1;collapsible=0;childLayout=tableLayout;fixedRows=1;rowLines=0;fontStyle=1;" vertex="1" parent="1">
          <mxGeometry x="50" y="520" width="190" height="210" as="geometry" />
        </mxCell>
        <mxCell id="6ua6EZ7eQQbF8Mh1pxGT-125" value="" style="shape=tableRow;horizontal=0;startSize=0;swimlaneHead=0;swimlaneBody=0;top=0;left=0;bottom=0;right=0;collapsible=0;dropTarget=0;fillColor=none;points=[[0,0.5],[1,0.5]];portConstraint=eastwest;strokeWidth=5;perimeterSpacing=9;rounded=1;sketch=1;shadow=1;" vertex="1" parent="6ua6EZ7eQQbF8Mh1pxGT-124">
          <mxGeometry y="30" width="190" height="30" as="geometry" />
        </mxCell>
        <mxCell id="6ua6EZ7eQQbF8Mh1pxGT-126" value="pk" style="shape=partialRectangle;html=1;whiteSpace=wrap;connectable=0;fillColor=none;top=0;left=0;bottom=0;right=0;overflow=hidden;pointerEvents=1;" vertex="1" parent="6ua6EZ7eQQbF8Mh1pxGT-125">
          <mxGeometry width="60" height="30" as="geometry">
            <mxRectangle width="60" height="30" as="alternateBounds" />
          </mxGeometry>
        </mxCell>
        <mxCell id="6ua6EZ7eQQbF8Mh1pxGT-127" value="id" style="shape=partialRectangle;html=1;whiteSpace=wrap;connectable=0;fillColor=none;top=0;left=0;bottom=0;right=0;overflow=hidden;pointerEvents=1;" vertex="1" parent="6ua6EZ7eQQbF8Mh1pxGT-125">
          <mxGeometry x="60" width="130" height="30" as="geometry">
            <mxRectangle width="130" height="30" as="alternateBounds" />
          </mxGeometry>
        </mxCell>
        <mxCell id="6ua6EZ7eQQbF8Mh1pxGT-128" value="" style="shape=tableRow;horizontal=0;startSize=0;swimlaneHead=0;swimlaneBody=0;top=0;left=0;bottom=0;right=0;collapsible=0;dropTarget=0;fillColor=none;points=[[0,0.5],[1,0.5]];portConstraint=eastwest;" vertex="1" parent="6ua6EZ7eQQbF8Mh1pxGT-124">
          <mxGeometry y="60" width="190" height="30" as="geometry" />
        </mxCell>
        <mxCell id="6ua6EZ7eQQbF8Mh1pxGT-129" value="" style="shape=partialRectangle;html=1;whiteSpace=wrap;connectable=0;fillColor=none;top=0;left=0;bottom=0;right=0;overflow=hidden;" vertex="1" parent="6ua6EZ7eQQbF8Mh1pxGT-128">
          <mxGeometry width="60" height="30" as="geometry">
            <mxRectangle width="60" height="30" as="alternateBounds" />
          </mxGeometry>
        </mxCell>
        <mxCell id="6ua6EZ7eQQbF8Mh1pxGT-130" value="nome" style="shape=partialRectangle;html=1;whiteSpace=wrap;connectable=0;fillColor=none;top=0;left=0;bottom=0;right=0;overflow=hidden;" vertex="1" parent="6ua6EZ7eQQbF8Mh1pxGT-128">
          <mxGeometry x="60" width="130" height="30" as="geometry">
            <mxRectangle width="130" height="30" as="alternateBounds" />
          </mxGeometry>
        </mxCell>
        <mxCell id="6ua6EZ7eQQbF8Mh1pxGT-131" value="" style="shape=tableRow;horizontal=0;startSize=0;swimlaneHead=0;swimlaneBody=0;top=0;left=0;bottom=0;right=0;collapsible=0;dropTarget=0;fillColor=none;points=[[0,0.5],[1,0.5]];portConstraint=eastwest;" vertex="1" parent="6ua6EZ7eQQbF8Mh1pxGT-124">
          <mxGeometry y="90" width="190" height="30" as="geometry" />
        </mxCell>
        <mxCell id="6ua6EZ7eQQbF8Mh1pxGT-132" value="" style="shape=partialRectangle;html=1;whiteSpace=wrap;connectable=0;fillColor=none;top=0;left=0;bottom=0;right=0;overflow=hidden;" vertex="1" parent="6ua6EZ7eQQbF8Mh1pxGT-131">
          <mxGeometry width="60" height="30" as="geometry">
            <mxRectangle width="60" height="30" as="alternateBounds" />
          </mxGeometry>
        </mxCell>
        <mxCell id="6ua6EZ7eQQbF8Mh1pxGT-133" value="valor" style="shape=partialRectangle;html=1;whiteSpace=wrap;connectable=0;fillColor=none;top=0;left=0;bottom=0;right=0;overflow=hidden;" vertex="1" parent="6ua6EZ7eQQbF8Mh1pxGT-131">
          <mxGeometry x="60" width="130" height="30" as="geometry">
            <mxRectangle width="130" height="30" as="alternateBounds" />
          </mxGeometry>
        </mxCell>
        <mxCell id="6ua6EZ7eQQbF8Mh1pxGT-134" style="shape=tableRow;horizontal=0;startSize=0;swimlaneHead=0;swimlaneBody=0;top=0;left=0;bottom=0;right=0;collapsible=0;dropTarget=0;fillColor=none;points=[[0,0.5],[1,0.5]];portConstraint=eastwest;" vertex="1" parent="6ua6EZ7eQQbF8Mh1pxGT-124">
          <mxGeometry y="120" width="190" height="30" as="geometry" />
        </mxCell>
        <mxCell id="6ua6EZ7eQQbF8Mh1pxGT-135" style="shape=partialRectangle;html=1;whiteSpace=wrap;connectable=0;fillColor=none;top=0;left=0;bottom=0;right=0;overflow=hidden;" vertex="1" parent="6ua6EZ7eQQbF8Mh1pxGT-134">
          <mxGeometry width="60" height="30" as="geometry">
            <mxRectangle width="60" height="30" as="alternateBounds" />
          </mxGeometry>
        </mxCell>
        <mxCell id="6ua6EZ7eQQbF8Mh1pxGT-136" value="estoque" style="shape=partialRectangle;html=1;whiteSpace=wrap;connectable=0;fillColor=none;top=0;left=0;bottom=0;right=0;overflow=hidden;" vertex="1" parent="6ua6EZ7eQQbF8Mh1pxGT-134">
          <mxGeometry x="60" width="130" height="30" as="geometry">
            <mxRectangle width="130" height="30" as="alternateBounds" />
          </mxGeometry>
        </mxCell>
        <mxCell id="6ua6EZ7eQQbF8Mh1pxGT-137" style="shape=tableRow;horizontal=0;startSize=0;swimlaneHead=0;swimlaneBody=0;top=0;left=0;bottom=0;right=0;collapsible=0;dropTarget=0;fillColor=none;points=[[0,0.5],[1,0.5]];portConstraint=eastwest;" vertex="1" parent="6ua6EZ7eQQbF8Mh1pxGT-124">
          <mxGeometry y="150" width="190" height="30" as="geometry" />
        </mxCell>
        <mxCell id="6ua6EZ7eQQbF8Mh1pxGT-138" style="shape=partialRectangle;html=1;whiteSpace=wrap;connectable=0;fillColor=none;top=0;left=0;bottom=0;right=0;overflow=hidden;" vertex="1" parent="6ua6EZ7eQQbF8Mh1pxGT-137">
          <mxGeometry width="60" height="30" as="geometry">
            <mxRectangle width="60" height="30" as="alternateBounds" />
          </mxGeometry>
        </mxCell>
        <mxCell id="6ua6EZ7eQQbF8Mh1pxGT-139" value="valida" style="shape=partialRectangle;html=1;whiteSpace=wrap;connectable=0;fillColor=none;top=0;left=0;bottom=0;right=0;overflow=hidden;" vertex="1" parent="6ua6EZ7eQQbF8Mh1pxGT-137">
          <mxGeometry x="60" width="130" height="30" as="geometry">
            <mxRectangle width="130" height="30" as="alternateBounds" />
          </mxGeometry>
        </mxCell>
        <mxCell id="6ua6EZ7eQQbF8Mh1pxGT-194" style="shape=tableRow;horizontal=0;startSize=0;swimlaneHead=0;swimlaneBody=0;top=0;left=0;bottom=0;right=0;collapsible=0;dropTarget=0;fillColor=none;points=[[0,0.5],[1,0.5]];portConstraint=eastwest;" vertex="1" parent="6ua6EZ7eQQbF8Mh1pxGT-124">
          <mxGeometry y="180" width="190" height="30" as="geometry" />
        </mxCell>
        <mxCell id="6ua6EZ7eQQbF8Mh1pxGT-195" value="FK" style="shape=partialRectangle;html=1;whiteSpace=wrap;connectable=0;fillColor=none;top=0;left=0;bottom=0;right=0;overflow=hidden;" vertex="1" parent="6ua6EZ7eQQbF8Mh1pxGT-194">
          <mxGeometry width="60" height="30" as="geometry">
            <mxRectangle width="60" height="30" as="alternateBounds" />
          </mxGeometry>
        </mxCell>
        <mxCell id="6ua6EZ7eQQbF8Mh1pxGT-196" value="entregas" style="shape=partialRectangle;html=1;whiteSpace=wrap;connectable=0;fillColor=none;top=0;left=0;bottom=0;right=0;overflow=hidden;" vertex="1" parent="6ua6EZ7eQQbF8Mh1pxGT-194">
          <mxGeometry x="60" width="130" height="30" as="geometry">
            <mxRectangle width="130" height="30" as="alternateBounds" />
          </mxGeometry>
        </mxCell>
        <mxCell id="6ua6EZ7eQQbF8Mh1pxGT-143" value="" style="endArrow=none;html=1;rounded=0;entryX=1.006;entryY=-0.033;entryDx=0;entryDy=0;entryPerimeter=0;exitX=0.062;exitY=0.813;exitDx=0;exitDy=0;exitPerimeter=0;" edge="1" parent="6ua6EZ7eQQbF8Mh1pxGT-124" source="6ua6EZ7eQQbF8Mh1pxGT-125" target="6ua6EZ7eQQbF8Mh1pxGT-128">
          <mxGeometry width="50" height="50" relative="1" as="geometry">
            <mxPoint x="30" y="60" as="sourcePoint" />
            <mxPoint x="120" y="60" as="targetPoint" />
            <Array as="points">
              <mxPoint x="70" y="60" />
            </Array>
          </mxGeometry>
        </mxCell>
        <mxCell id="6ua6EZ7eQQbF8Mh1pxGT-144" value="mercado" style="shape=table;startSize=30;container=1;collapsible=0;childLayout=tableLayout;fixedRows=1;rowLines=0;fontStyle=1;" vertex="1" parent="1">
          <mxGeometry x="480" y="505" width="190" height="220" as="geometry" />
        </mxCell>
        <mxCell id="6ua6EZ7eQQbF8Mh1pxGT-145" value="" style="shape=tableRow;horizontal=0;startSize=0;swimlaneHead=0;swimlaneBody=0;top=0;left=0;bottom=0;right=0;collapsible=0;dropTarget=0;fillColor=none;points=[[0,0.5],[1,0.5]];portConstraint=eastwest;strokeWidth=5;perimeterSpacing=9;rounded=1;sketch=1;shadow=1;" vertex="1" parent="6ua6EZ7eQQbF8Mh1pxGT-144">
          <mxGeometry y="30" width="190" height="30" as="geometry" />
        </mxCell>
        <mxCell id="6ua6EZ7eQQbF8Mh1pxGT-146" value="pk" style="shape=partialRectangle;html=1;whiteSpace=wrap;connectable=0;fillColor=none;top=0;left=0;bottom=0;right=0;overflow=hidden;pointerEvents=1;" vertex="1" parent="6ua6EZ7eQQbF8Mh1pxGT-145">
          <mxGeometry width="95" height="30" as="geometry">
            <mxRectangle width="95" height="30" as="alternateBounds" />
          </mxGeometry>
        </mxCell>
        <mxCell id="6ua6EZ7eQQbF8Mh1pxGT-147" value="id" style="shape=partialRectangle;html=1;whiteSpace=wrap;connectable=0;fillColor=none;top=0;left=0;bottom=0;right=0;overflow=hidden;pointerEvents=1;" vertex="1" parent="6ua6EZ7eQQbF8Mh1pxGT-145">
          <mxGeometry x="95" width="95" height="30" as="geometry">
            <mxRectangle width="95" height="30" as="alternateBounds" />
          </mxGeometry>
        </mxCell>
        <mxCell id="6ua6EZ7eQQbF8Mh1pxGT-148" value="" style="shape=tableRow;horizontal=0;startSize=0;swimlaneHead=0;swimlaneBody=0;top=0;left=0;bottom=0;right=0;collapsible=0;dropTarget=0;fillColor=none;points=[[0,0.5],[1,0.5]];portConstraint=eastwest;" vertex="1" parent="6ua6EZ7eQQbF8Mh1pxGT-144">
          <mxGeometry y="60" width="190" height="30" as="geometry" />
        </mxCell>
        <mxCell id="6ua6EZ7eQQbF8Mh1pxGT-149" value="" style="shape=partialRectangle;html=1;whiteSpace=wrap;connectable=0;fillColor=none;top=0;left=0;bottom=0;right=0;overflow=hidden;" vertex="1" parent="6ua6EZ7eQQbF8Mh1pxGT-148">
          <mxGeometry width="95" height="30" as="geometry">
            <mxRectangle width="95" height="30" as="alternateBounds" />
          </mxGeometry>
        </mxCell>
        <mxCell id="6ua6EZ7eQQbF8Mh1pxGT-150" value="unidade" style="shape=partialRectangle;html=1;whiteSpace=wrap;connectable=0;fillColor=none;top=0;left=0;bottom=0;right=0;overflow=hidden;" vertex="1" parent="6ua6EZ7eQQbF8Mh1pxGT-148">
          <mxGeometry x="95" width="95" height="30" as="geometry">
            <mxRectangle width="95" height="30" as="alternateBounds" />
          </mxGeometry>
        </mxCell>
        <mxCell id="6ua6EZ7eQQbF8Mh1pxGT-151" value="" style="shape=tableRow;horizontal=0;startSize=0;swimlaneHead=0;swimlaneBody=0;top=0;left=0;bottom=0;right=0;collapsible=0;dropTarget=0;fillColor=none;points=[[0,0.5],[1,0.5]];portConstraint=eastwest;" vertex="1" parent="6ua6EZ7eQQbF8Mh1pxGT-144">
          <mxGeometry y="90" width="190" height="30" as="geometry" />
        </mxCell>
        <mxCell id="6ua6EZ7eQQbF8Mh1pxGT-152" value="" style="shape=partialRectangle;html=1;whiteSpace=wrap;connectable=0;fillColor=none;top=0;left=0;bottom=0;right=0;overflow=hidden;" vertex="1" parent="6ua6EZ7eQQbF8Mh1pxGT-151">
          <mxGeometry width="95" height="30" as="geometry">
            <mxRectangle width="95" height="30" as="alternateBounds" />
          </mxGeometry>
        </mxCell>
        <mxCell id="6ua6EZ7eQQbF8Mh1pxGT-153" value="endereçõ" style="shape=partialRectangle;html=1;whiteSpace=wrap;connectable=0;fillColor=none;top=0;left=0;bottom=0;right=0;overflow=hidden;" vertex="1" parent="6ua6EZ7eQQbF8Mh1pxGT-151">
          <mxGeometry x="95" width="95" height="30" as="geometry">
            <mxRectangle width="95" height="30" as="alternateBounds" />
          </mxGeometry>
        </mxCell>
        <mxCell id="6ua6EZ7eQQbF8Mh1pxGT-154" style="shape=tableRow;horizontal=0;startSize=0;swimlaneHead=0;swimlaneBody=0;top=0;left=0;bottom=0;right=0;collapsible=0;dropTarget=0;fillColor=none;points=[[0,0.5],[1,0.5]];portConstraint=eastwest;" vertex="1" parent="6ua6EZ7eQQbF8Mh1pxGT-144">
          <mxGeometry y="120" width="190" height="30" as="geometry" />
        </mxCell>
        <mxCell id="6ua6EZ7eQQbF8Mh1pxGT-155" style="shape=partialRectangle;html=1;whiteSpace=wrap;connectable=0;fillColor=none;top=0;left=0;bottom=0;right=0;overflow=hidden;" vertex="1" parent="6ua6EZ7eQQbF8Mh1pxGT-154">
          <mxGeometry width="95" height="30" as="geometry">
            <mxRectangle width="95" height="30" as="alternateBounds" />
          </mxGeometry>
        </mxCell>
        <mxCell id="6ua6EZ7eQQbF8Mh1pxGT-156" value="receita" style="shape=partialRectangle;html=1;whiteSpace=wrap;connectable=0;fillColor=none;top=0;left=0;bottom=0;right=0;overflow=hidden;" vertex="1" parent="6ua6EZ7eQQbF8Mh1pxGT-154">
          <mxGeometry x="95" width="95" height="30" as="geometry">
            <mxRectangle width="95" height="30" as="alternateBounds" />
          </mxGeometry>
        </mxCell>
        <mxCell id="6ua6EZ7eQQbF8Mh1pxGT-157" style="shape=tableRow;horizontal=0;startSize=0;swimlaneHead=0;swimlaneBody=0;top=0;left=0;bottom=0;right=0;collapsible=0;dropTarget=0;fillColor=none;points=[[0,0.5],[1,0.5]];portConstraint=eastwest;" vertex="1" parent="6ua6EZ7eQQbF8Mh1pxGT-144">
          <mxGeometry y="150" width="190" height="30" as="geometry" />
        </mxCell>
        <mxCell id="6ua6EZ7eQQbF8Mh1pxGT-158" value="FK" style="shape=partialRectangle;html=1;whiteSpace=wrap;connectable=0;fillColor=none;top=0;left=0;bottom=0;right=0;overflow=hidden;" vertex="1" parent="6ua6EZ7eQQbF8Mh1pxGT-157">
          <mxGeometry width="95" height="30" as="geometry">
            <mxRectangle width="95" height="30" as="alternateBounds" />
          </mxGeometry>
        </mxCell>
        <mxCell id="6ua6EZ7eQQbF8Mh1pxGT-159" value="clientes" style="shape=partialRectangle;html=1;whiteSpace=wrap;connectable=0;fillColor=none;top=0;left=0;bottom=0;right=0;overflow=hidden;" vertex="1" parent="6ua6EZ7eQQbF8Mh1pxGT-157">
          <mxGeometry x="95" width="95" height="30" as="geometry">
            <mxRectangle width="95" height="30" as="alternateBounds" />
          </mxGeometry>
        </mxCell>
        <mxCell id="6ua6EZ7eQQbF8Mh1pxGT-160" style="shape=tableRow;horizontal=0;startSize=0;swimlaneHead=0;swimlaneBody=0;top=0;left=0;bottom=0;right=0;collapsible=0;dropTarget=0;fillColor=none;points=[[0,0.5],[1,0.5]];portConstraint=eastwest;" vertex="1" parent="6ua6EZ7eQQbF8Mh1pxGT-144">
          <mxGeometry y="180" width="190" height="30" as="geometry" />
        </mxCell>
        <mxCell id="6ua6EZ7eQQbF8Mh1pxGT-161" style="shape=partialRectangle;html=1;whiteSpace=wrap;connectable=0;fillColor=none;top=0;left=0;bottom=0;right=0;overflow=hidden;" vertex="1" parent="6ua6EZ7eQQbF8Mh1pxGT-160">
          <mxGeometry width="95" height="30" as="geometry">
            <mxRectangle width="95" height="30" as="alternateBounds" />
          </mxGeometry>
        </mxCell>
        <mxCell id="6ua6EZ7eQQbF8Mh1pxGT-162" value="lucro" style="shape=partialRectangle;html=1;whiteSpace=wrap;connectable=0;fillColor=none;top=0;left=0;bottom=0;right=0;overflow=hidden;" vertex="1" parent="6ua6EZ7eQQbF8Mh1pxGT-160">
          <mxGeometry x="95" width="95" height="30" as="geometry">
            <mxRectangle width="95" height="30" as="alternateBounds" />
          </mxGeometry>
        </mxCell>
        <mxCell id="6ua6EZ7eQQbF8Mh1pxGT-166" value="" style="endArrow=none;html=1;rounded=0;entryX=1.006;entryY=-0.033;entryDx=0;entryDy=0;entryPerimeter=0;exitX=0.062;exitY=0.813;exitDx=0;exitDy=0;exitPerimeter=0;" edge="1" parent="6ua6EZ7eQQbF8Mh1pxGT-144" source="6ua6EZ7eQQbF8Mh1pxGT-145" target="6ua6EZ7eQQbF8Mh1pxGT-148">
          <mxGeometry width="50" height="50" relative="1" as="geometry">
            <mxPoint x="30" y="60" as="sourcePoint" />
            <mxPoint x="120" y="60" as="targetPoint" />
            <Array as="points">
              <mxPoint x="70" y="60" />
            </Array>
          </mxGeometry>
        </mxCell>
        <mxCell id="6ua6EZ7eQQbF8Mh1pxGT-167" value="suporte" style="shape=table;startSize=30;container=1;collapsible=0;childLayout=tableLayout;fixedRows=1;rowLines=0;fontStyle=1;" vertex="1" parent="1">
          <mxGeometry x="840" y="500" width="190" height="210" as="geometry" />
        </mxCell>
        <mxCell id="6ua6EZ7eQQbF8Mh1pxGT-168" value="" style="shape=tableRow;horizontal=0;startSize=0;swimlaneHead=0;swimlaneBody=0;top=0;left=0;bottom=0;right=0;collapsible=0;dropTarget=0;fillColor=none;points=[[0,0.5],[1,0.5]];portConstraint=eastwest;strokeWidth=5;perimeterSpacing=9;rounded=1;sketch=1;shadow=1;" vertex="1" parent="6ua6EZ7eQQbF8Mh1pxGT-167">
          <mxGeometry y="30" width="190" height="30" as="geometry" />
        </mxCell>
        <mxCell id="6ua6EZ7eQQbF8Mh1pxGT-169" value="pk" style="shape=partialRectangle;html=1;whiteSpace=wrap;connectable=0;fillColor=none;top=0;left=0;bottom=0;right=0;overflow=hidden;pointerEvents=1;" vertex="1" parent="6ua6EZ7eQQbF8Mh1pxGT-168">
          <mxGeometry width="60" height="30" as="geometry">
            <mxRectangle width="60" height="30" as="alternateBounds" />
          </mxGeometry>
        </mxCell>
        <mxCell id="6ua6EZ7eQQbF8Mh1pxGT-170" value="id" style="shape=partialRectangle;html=1;whiteSpace=wrap;connectable=0;fillColor=none;top=0;left=0;bottom=0;right=0;overflow=hidden;pointerEvents=1;" vertex="1" parent="6ua6EZ7eQQbF8Mh1pxGT-168">
          <mxGeometry x="60" width="130" height="30" as="geometry">
            <mxRectangle width="130" height="30" as="alternateBounds" />
          </mxGeometry>
        </mxCell>
        <mxCell id="6ua6EZ7eQQbF8Mh1pxGT-171" value="" style="shape=tableRow;horizontal=0;startSize=0;swimlaneHead=0;swimlaneBody=0;top=0;left=0;bottom=0;right=0;collapsible=0;dropTarget=0;fillColor=none;points=[[0,0.5],[1,0.5]];portConstraint=eastwest;" vertex="1" parent="6ua6EZ7eQQbF8Mh1pxGT-167">
          <mxGeometry y="60" width="190" height="30" as="geometry" />
        </mxCell>
        <mxCell id="6ua6EZ7eQQbF8Mh1pxGT-172" value="" style="shape=partialRectangle;html=1;whiteSpace=wrap;connectable=0;fillColor=none;top=0;left=0;bottom=0;right=0;overflow=hidden;" vertex="1" parent="6ua6EZ7eQQbF8Mh1pxGT-171">
          <mxGeometry width="60" height="30" as="geometry">
            <mxRectangle width="60" height="30" as="alternateBounds" />
          </mxGeometry>
        </mxCell>
        <mxCell id="6ua6EZ7eQQbF8Mh1pxGT-173" value="data" style="shape=partialRectangle;html=1;whiteSpace=wrap;connectable=0;fillColor=none;top=0;left=0;bottom=0;right=0;overflow=hidden;" vertex="1" parent="6ua6EZ7eQQbF8Mh1pxGT-171">
          <mxGeometry x="60" width="130" height="30" as="geometry">
            <mxRectangle width="130" height="30" as="alternateBounds" />
          </mxGeometry>
        </mxCell>
        <mxCell id="6ua6EZ7eQQbF8Mh1pxGT-174" value="" style="shape=tableRow;horizontal=0;startSize=0;swimlaneHead=0;swimlaneBody=0;top=0;left=0;bottom=0;right=0;collapsible=0;dropTarget=0;fillColor=none;points=[[0,0.5],[1,0.5]];portConstraint=eastwest;" vertex="1" parent="6ua6EZ7eQQbF8Mh1pxGT-167">
          <mxGeometry y="90" width="190" height="30" as="geometry" />
        </mxCell>
        <mxCell id="6ua6EZ7eQQbF8Mh1pxGT-175" value="" style="shape=partialRectangle;html=1;whiteSpace=wrap;connectable=0;fillColor=none;top=0;left=0;bottom=0;right=0;overflow=hidden;" vertex="1" parent="6ua6EZ7eQQbF8Mh1pxGT-174">
          <mxGeometry width="60" height="30" as="geometry">
            <mxRectangle width="60" height="30" as="alternateBounds" />
          </mxGeometry>
        </mxCell>
        <mxCell id="6ua6EZ7eQQbF8Mh1pxGT-176" value="ajuda" style="shape=partialRectangle;html=1;whiteSpace=wrap;connectable=0;fillColor=none;top=0;left=0;bottom=0;right=0;overflow=hidden;" vertex="1" parent="6ua6EZ7eQQbF8Mh1pxGT-174">
          <mxGeometry x="60" width="130" height="30" as="geometry">
            <mxRectangle width="130" height="30" as="alternateBounds" />
          </mxGeometry>
        </mxCell>
        <mxCell id="6ua6EZ7eQQbF8Mh1pxGT-177" style="shape=tableRow;horizontal=0;startSize=0;swimlaneHead=0;swimlaneBody=0;top=0;left=0;bottom=0;right=0;collapsible=0;dropTarget=0;fillColor=none;points=[[0,0.5],[1,0.5]];portConstraint=eastwest;" vertex="1" parent="6ua6EZ7eQQbF8Mh1pxGT-167">
          <mxGeometry y="120" width="190" height="30" as="geometry" />
        </mxCell>
        <mxCell id="6ua6EZ7eQQbF8Mh1pxGT-178" style="shape=partialRectangle;html=1;whiteSpace=wrap;connectable=0;fillColor=none;top=0;left=0;bottom=0;right=0;overflow=hidden;" vertex="1" parent="6ua6EZ7eQQbF8Mh1pxGT-177">
          <mxGeometry width="60" height="30" as="geometry">
            <mxRectangle width="60" height="30" as="alternateBounds" />
          </mxGeometry>
        </mxCell>
        <mxCell id="6ua6EZ7eQQbF8Mh1pxGT-179" value="satisfação" style="shape=partialRectangle;html=1;whiteSpace=wrap;connectable=0;fillColor=none;top=0;left=0;bottom=0;right=0;overflow=hidden;" vertex="1" parent="6ua6EZ7eQQbF8Mh1pxGT-177">
          <mxGeometry x="60" width="130" height="30" as="geometry">
            <mxRectangle width="130" height="30" as="alternateBounds" />
          </mxGeometry>
        </mxCell>
        <mxCell id="6ua6EZ7eQQbF8Mh1pxGT-180" style="shape=tableRow;horizontal=0;startSize=0;swimlaneHead=0;swimlaneBody=0;top=0;left=0;bottom=0;right=0;collapsible=0;dropTarget=0;fillColor=none;points=[[0,0.5],[1,0.5]];portConstraint=eastwest;" vertex="1" parent="6ua6EZ7eQQbF8Mh1pxGT-167">
          <mxGeometry y="150" width="190" height="30" as="geometry" />
        </mxCell>
        <mxCell id="6ua6EZ7eQQbF8Mh1pxGT-181" value="FK" style="shape=partialRectangle;html=1;whiteSpace=wrap;connectable=0;fillColor=none;top=0;left=0;bottom=0;right=0;overflow=hidden;" vertex="1" parent="6ua6EZ7eQQbF8Mh1pxGT-180">
          <mxGeometry width="60" height="30" as="geometry">
            <mxRectangle width="60" height="30" as="alternateBounds" />
          </mxGeometry>
        </mxCell>
        <mxCell id="6ua6EZ7eQQbF8Mh1pxGT-182" value="cliente" style="shape=partialRectangle;html=1;whiteSpace=wrap;connectable=0;fillColor=none;top=0;left=0;bottom=0;right=0;overflow=hidden;" vertex="1" parent="6ua6EZ7eQQbF8Mh1pxGT-180">
          <mxGeometry x="60" width="130" height="30" as="geometry">
            <mxRectangle width="130" height="30" as="alternateBounds" />
          </mxGeometry>
        </mxCell>
        <mxCell id="6ua6EZ7eQQbF8Mh1pxGT-191" style="shape=tableRow;horizontal=0;startSize=0;swimlaneHead=0;swimlaneBody=0;top=0;left=0;bottom=0;right=0;collapsible=0;dropTarget=0;fillColor=none;points=[[0,0.5],[1,0.5]];portConstraint=eastwest;" vertex="1" parent="6ua6EZ7eQQbF8Mh1pxGT-167">
          <mxGeometry y="180" width="190" height="30" as="geometry" />
        </mxCell>
        <mxCell id="6ua6EZ7eQQbF8Mh1pxGT-192" style="shape=partialRectangle;html=1;whiteSpace=wrap;connectable=0;fillColor=none;top=0;left=0;bottom=0;right=0;overflow=hidden;" vertex="1" parent="6ua6EZ7eQQbF8Mh1pxGT-191">
          <mxGeometry width="60" height="30" as="geometry">
            <mxRectangle width="60" height="30" as="alternateBounds" />
          </mxGeometry>
        </mxCell>
        <mxCell id="6ua6EZ7eQQbF8Mh1pxGT-193" value="resolvido" style="shape=partialRectangle;html=1;whiteSpace=wrap;connectable=0;fillColor=none;top=0;left=0;bottom=0;right=0;overflow=hidden;" vertex="1" parent="6ua6EZ7eQQbF8Mh1pxGT-191">
          <mxGeometry x="60" width="130" height="30" as="geometry">
            <mxRectangle width="130" height="30" as="alternateBounds" />
          </mxGeometry>
        </mxCell>
        <mxCell id="6ua6EZ7eQQbF8Mh1pxGT-186" value="" style="endArrow=none;html=1;rounded=0;entryX=1.006;entryY=-0.033;entryDx=0;entryDy=0;entryPerimeter=0;exitX=0.062;exitY=0.813;exitDx=0;exitDy=0;exitPerimeter=0;" edge="1" parent="6ua6EZ7eQQbF8Mh1pxGT-167" source="6ua6EZ7eQQbF8Mh1pxGT-168" target="6ua6EZ7eQQbF8Mh1pxGT-171">
          <mxGeometry width="50" height="50" relative="1" as="geometry">
            <mxPoint x="30" y="60" as="sourcePoint" />
            <mxPoint x="120" y="60" as="targetPoint" />
            <Array as="points">
              <mxPoint x="70" y="60" />
            </Array>
          </mxGeometry>
        </mxCell>
        <mxCell id="6ua6EZ7eQQbF8Mh1pxGT-187" value="mercado" style="shape=partialRectangle;html=1;whiteSpace=wrap;connectable=0;fillColor=none;top=0;left=0;bottom=0;right=0;overflow=hidden;" vertex="1" parent="1">
          <mxGeometry x="890" y="240" width="130" height="30" as="geometry">
            <mxRectangle width="130" height="30" as="alternateBounds" />
          </mxGeometry>
        </mxCell>
        <mxCell id="6ua6EZ7eQQbF8Mh1pxGT-201" value="" style="curved=1;endArrow=classic;html=1;rounded=0;entryX=0;entryY=0.5;entryDx=0;entryDy=0;exitX=1;exitY=0.5;exitDx=0;exitDy=0;" edge="1" parent="1" source="6ua6EZ7eQQbF8Mh1pxGT-194" target="6ua6EZ7eQQbF8Mh1pxGT-87">
          <mxGeometry width="50" height="50" relative="1" as="geometry">
            <mxPoint x="260" y="710" as="sourcePoint" />
            <mxPoint x="370" y="300" as="targetPoint" />
            <Array as="points">
              <mxPoint x="310" y="715" />
              <mxPoint x="330" y="710" />
              <mxPoint x="370" y="680" />
              <mxPoint x="340" y="300" />
              <mxPoint x="400" y="220" />
            </Array>
          </mxGeometry>
        </mxCell>
        <mxCell id="6ua6EZ7eQQbF8Mh1pxGT-202" value="" style="endArrow=classic;startArrow=classic;html=1;rounded=0;entryX=0;entryY=0;entryDx=0;entryDy=0;" edge="1" parent="1" target="6ua6EZ7eQQbF8Mh1pxGT-101">
          <mxGeometry width="50" height="50" relative="1" as="geometry">
            <mxPoint x="670" y="260" as="sourcePoint" />
            <mxPoint x="720" y="210" as="targetPoint" />
            <Array as="points">
              <mxPoint x="700" y="230" />
            </Array>
          </mxGeometry>
        </mxCell>
        <mxCell id="6ua6EZ7eQQbF8Mh1pxGT-203" value="" style="endArrow=classic;startArrow=classic;html=1;rounded=0;entryX=0;entryY=0.5;entryDx=0;entryDy=0;" edge="1" parent="1" target="6ua6EZ7eQQbF8Mh1pxGT-157">
          <mxGeometry width="50" height="50" relative="1" as="geometry">
            <mxPoint x="240" y="260" as="sourcePoint" />
            <mxPoint x="290" y="210" as="targetPoint" />
            <Array as="points" />
          </mxGeometry>
        </mxCell>
        <mxCell id="6ua6EZ7eQQbF8Mh1pxGT-204" value="" style="endArrow=classic;startArrow=classic;html=1;rounded=0;entryX=0;entryY=0.5;entryDx=0;entryDy=0;exitX=1;exitY=0;exitDx=0;exitDy=0;" edge="1" parent="1" source="6ua6EZ7eQQbF8Mh1pxGT-7" target="6ua6EZ7eQQbF8Mh1pxGT-96">
          <mxGeometry width="50" height="50" relative="1" as="geometry">
            <mxPoint x="330" y="210" as="sourcePoint" />
            <mxPoint x="380" y="160" as="targetPoint" />
            <Array as="points">
              <mxPoint x="350" y="190" />
            </Array>
          </mxGeometry>
        </mxCell>
        <mxCell id="6ua6EZ7eQQbF8Mh1pxGT-205" value="" style="endArrow=classic;startArrow=classic;html=1;rounded=0;exitX=1;exitY=0;exitDx=0;exitDy=0;" edge="1" parent="1" source="6ua6EZ7eQQbF8Mh1pxGT-144">
          <mxGeometry width="50" height="50" relative="1" as="geometry">
            <mxPoint x="780" y="300" as="sourcePoint" />
            <mxPoint x="830" y="250" as="targetPoint" />
          </mxGeometry>
        </mxCell>
        <mxCell id="6ua6EZ7eQQbF8Mh1pxGT-208" value="" style="curved=1;endArrow=classic;html=1;rounded=0;entryX=1;entryY=0;entryDx=0;entryDy=0;exitX=1;exitY=0.5;exitDx=0;exitDy=0;" edge="1" parent="1" source="6ua6EZ7eQQbF8Mh1pxGT-180" target="6ua6EZ7eQQbF8Mh1pxGT-7">
          <mxGeometry width="50" height="50" relative="1" as="geometry">
            <mxPoint x="1070" y="670" as="sourcePoint" />
            <mxPoint x="260" y="40" as="targetPoint" />
            <Array as="points">
              <mxPoint x="1100" y="380" />
              <mxPoint x="1090" y="80" />
              <mxPoint x="1070" y="40" />
              <mxPoint x="1040" y="30" />
              <mxPoint x="640" y="10" />
            </Array>
          </mxGeometry>
        </mxCell>
      </root>
    </mxGraphModel>
  </diagram>
</mxfile>
